<svg xmlns="http://www.w3.org/2000/svg" width="128" height="128" viewBox="0 0 128 128">
  <defs>
    <linearGradient id="g" x1="0" y1="0" x2="1" y2="1">
      <stop offset="0" stop-color="#8b5cf6"/>
      <stop offset="1" stop-color="#ec4899"/>
    </linearGradient>
  </defs>
  <rect x="8" y="8" width="112" height="112" rx="26" fill="url(#g)"/>
  <g stroke="#ffffff" stroke-width="7" stroke-linecap="round" fill="none">
    <path d="M 30 46 L 30 32 A 4 4 0 0 1 34 28 L 48 28"/>
    <path d="M 80 28 L 94 28 A 4 4 0 0 1 98 32 L 98 46"/>
    <path d="M 98 82 L 98 96 A 4 4 0 0 1 94 100 L 80 100"/>
    <path d="M 48 100 L 34 100 A 4 4 0 0 1 30 96 L 30 82"/>
  </g>
  <ellipse cx="64" cy="64" rx="22" ry="14" fill="none" stroke="#ffffff" stroke-width="6"/>
  <circle cx="64" cy="64" r="6.5" fill="#ffffff"/>
</svg>
